<svg xmlns="http://www.w3.org/2000/svg" viewBox="0 0 219.33 51.76"><defs><style>.cls-1{fill:#f16924;}.cls-2{fill:#fcb918;}.cls-3{fill:#0f4c8c;}.cls-4{fill:#109ad7;}</style></defs><title>Asset 1new logo 2</title><g id="Layer_2" data-name="Layer 2"><g id="Layer_1-2" data-name="Layer 1"><polygon class="cls-1" points="204.87 51.76 190.47 51.76 152.52 0 166.91 0 204.87 51.76"/><polygon class="cls-2" points="219.33 51.76 204.93 51.76 166.98 0 181.38 0 219.33 51.76"/><polygon class="cls-3" points="204.61 0 219 0 182.03 51.76 167.63 51.76 204.61 0"/><polygon class="cls-4" points="190.15 0 204.54 0 167.57 51.76 153.17 51.76 190.15 0"/><polygon class="cls-1" points="204.8 51.76 190.41 51.76 178.89 36.03 185.96 26.08 204.8 51.76"/><polygon class="cls-2" points="193.29 16.38 185.96 26.08 166.91 0 181.31 0 193.29 16.38"/><path class="cls-2" d="M4.49,10.14H15.6q7.59,0,11,2.16t3.43,6.87a8.66,8.66,0,0,1-1.5,5.25,6,6,0,0,1-4,2.47v.24A7.87,7.87,0,0,1,29.46,30,9.21,9.21,0,0,1,31,35.48a9.09,9.09,0,0,1-3.53,7.62q-3.53,2.73-9.58,2.73H4.49Zm7.57,14.14h4.39a8,8,0,0,0,4.46-1,3.55,3.55,0,0,0,1.38-3.15,3.15,3.15,0,0,0-1.5-2.94A9.65,9.65,0,0,0,16,16.34h-4Zm0,6v9.3H17a7.31,7.31,0,0,0,4.61-1.2,4.42,4.42,0,0,0,1.49-3.66q0-4.44-6.35-4.44Z" transform="translate(-4.49)"/><path class="cls-2" d="M52,15.93a7.71,7.71,0,0,0-6.62,3.21Q43,22.35,43,28.08,43,40,52,40a28.32,28.32,0,0,0,9.11-1.88v6.35a25.29,25.29,0,0,1-9.81,1.83q-7.79,0-11.91-4.72T35.22,28a22.14,22.14,0,0,1,2-9.75,14.64,14.64,0,0,1,5.82-6.42A17.22,17.22,0,0,1,52,9.63a24,24,0,0,1,10.45,2.51L60,18.29a40.52,40.52,0,0,0-4-1.66A12,12,0,0,0,52,15.93Z" transform="translate(-4.49)"/><path class="cls-3" d="M98.59,27.65q0,8.81-5,13.5T79.09,45.83H69V10.14H80.18q8.74,0,13.57,4.61T98.59,27.65Zm-7.86.2q0-11.5-10.16-11.5h-4V39.58h3.25Q90.73,39.58,90.73,27.84Z" transform="translate(-4.49)"/><path class="cls-3" d="M116,46.32q-6.59,0-10.3-3.64T102,32.38q0-6.86,3.43-10.61T114.91,18q5.79,0,9,3.3t3.22,9.11V34h-17.6a7.17,7.17,0,0,0,1.88,5,6.61,6.61,0,0,0,4.93,1.78,20.47,20.47,0,0,0,4.66-.51,23.33,23.33,0,0,0,4.59-1.64v5.76a17.46,17.46,0,0,1-4.17,1.45A26.27,26.27,0,0,1,116,46.32Zm-1.05-23a4.72,4.72,0,0,0-3.71,1.5,7,7,0,0,0-1.54,4.26h10.45a6.21,6.21,0,0,0-1.44-4.26A4.88,4.88,0,0,0,115,23.32Z" transform="translate(-4.49)"/><path class="cls-3" d="M138.24,45.83l-10.4-27.29h7.79l5.27,15.55a27.75,27.75,0,0,1,1.1,5.59h.15a24.28,24.28,0,0,1,1.1-5.59l5.25-15.55h7.79l-10.4,27.29Z" transform="translate(-4.49)"/></g></g></svg>