<svg xmlns="http://www.w3.org/2000/svg" viewBox="0 0 133.96 103.65"><defs><style>.cls-1{fill:#f16924;}.cls-2{fill:#fcb918;}.cls-3{fill:#0f4c8c;}.cls-4{fill:#109ad7;}</style></defs><title>Asset 2new avatar 2</title><g id="Layer_2" data-name="Layer 2"><g id="Layer_1-2" data-name="Layer 1"><polygon class="cls-1" points="104.96 103.65 76.1 103.65 0 0 28.86 0 104.96 103.65"/><polygon class="cls-2" points="133.96 103.65 105.09 103.65 29 0 57.86 0 133.96 103.65"/><polygon class="cls-3" points="104.44 0 133.3 0 59.17 103.65 30.31 103.65 104.44 0"/><polygon class="cls-4" points="75.44 0 104.31 0 30.18 103.65 1.31 103.65 75.44 0"/><polygon class="cls-1" points="104.83 103.65 75.97 103.65 52.88 72.16 67.05 52.22 104.83 103.65"/><polygon class="cls-2" points="81.74 32.8 67.05 52.22 28.86 0 57.73 0 81.74 32.8"/></g></g></svg>